<mxfile host="Electron" agent="Mozilla/5.0 (Windows NT 10.0; Win64; x64) AppleWebKit/537.36 (KHTML, like Gecko) draw.io/27.0.5 Chrome/134.0.6998.205 Electron/35.3.0 Safari/537.36" version="27.0.5">
  <diagram name="Page-1" id="Fmyx233Jh0pZR21RsWaU">
    <mxGraphModel dx="480" dy="1718" grid="1" gridSize="10" guides="1" tooltips="1" connect="1" arrows="1" fold="1" page="1" pageScale="1" pageWidth="850" pageHeight="1100" math="0" shadow="0" adaptiveColors="none">
      <root>
        <mxCell id="0" />
        <mxCell id="1" parent="0" />
        <mxCell id="As6aPPOPx7sYVaeizyeQ-16" style="edgeStyle=orthogonalEdgeStyle;rounded=0;orthogonalLoop=1;jettySize=auto;html=1;" parent="1" source="As6aPPOPx7sYVaeizyeQ-9" target="As6aPPOPx7sYVaeizyeQ-11" edge="1">
          <mxGeometry relative="1" as="geometry">
            <mxPoint x="160" y="300" as="targetPoint" />
          </mxGeometry>
        </mxCell>
        <mxCell id="As6aPPOPx7sYVaeizyeQ-9" value="Tarugo de Aço" style="rounded=0;whiteSpace=wrap;html=1;" parent="1" vertex="1">
          <mxGeometry x="140" y="260" width="200" height="60" as="geometry" />
        </mxCell>
        <mxCell id="As6aPPOPx7sYVaeizyeQ-18" style="edgeStyle=orthogonalEdgeStyle;rounded=0;orthogonalLoop=1;jettySize=auto;html=1;entryX=0.5;entryY=1;entryDx=0;entryDy=0;" parent="1" source="As6aPPOPx7sYVaeizyeQ-11" target="As6aPPOPx7sYVaeizyeQ-12" edge="1">
          <mxGeometry relative="1" as="geometry" />
        </mxCell>
        <mxCell id="As6aPPOPx7sYVaeizyeQ-11" value="Fio de Aço" style="rounded=0;whiteSpace=wrap;html=1;" parent="1" vertex="1">
          <mxGeometry x="140" y="150" width="200" height="60" as="geometry" />
        </mxCell>
        <mxCell id="As6aPPOPx7sYVaeizyeQ-19" style="edgeStyle=orthogonalEdgeStyle;rounded=0;orthogonalLoop=1;jettySize=auto;html=1;" parent="1" source="As6aPPOPx7sYVaeizyeQ-12" target="As6aPPOPx7sYVaeizyeQ-14" edge="1">
          <mxGeometry relative="1" as="geometry">
            <mxPoint x="380" as="targetPoint" />
          </mxGeometry>
        </mxCell>
        <mxCell id="As6aPPOPx7sYVaeizyeQ-12" value="Fio de Aço Galvanizado" style="rounded=0;whiteSpace=wrap;html=1;" parent="1" vertex="1">
          <mxGeometry x="280" y="40" width="200" height="60" as="geometry" />
        </mxCell>
        <mxCell id="As6aPPOPx7sYVaeizyeQ-14" value="Cabo de Aço Entrançado" style="rounded=0;whiteSpace=wrap;html=1;" parent="1" vertex="1">
          <mxGeometry x="280" y="-60" width="200" height="60" as="geometry" />
        </mxCell>
        <mxCell id="YKznKMfLZ2UA2GJ3oMAX-12" style="edgeStyle=orthogonalEdgeStyle;rounded=0;orthogonalLoop=1;jettySize=auto;html=1;" parent="1" source="As6aPPOPx7sYVaeizyeQ-21" target="As6aPPOPx7sYVaeizyeQ-12" edge="1">
          <mxGeometry relative="1" as="geometry" />
        </mxCell>
        <mxCell id="As6aPPOPx7sYVaeizyeQ-21" value="Zinco" style="rounded=0;whiteSpace=wrap;html=1;" parent="1" vertex="1">
          <mxGeometry x="430" y="150" width="200" height="60" as="geometry" />
        </mxCell>
        <mxCell id="4r2Ie_Q1p23mnPpWkffT-2" value="(2.25 kg&lt;span style=&quot;background-color: transparent; color: light-dark(rgb(0, 0, 0), rgb(255, 255, 255));&quot;&gt;)&lt;/span&gt;" style="text;html=1;align=center;verticalAlign=middle;whiteSpace=wrap;rounded=0;" parent="1" vertex="1">
          <mxGeometry x="630" y="190" width="60" height="20" as="geometry" />
        </mxCell>
        <mxCell id="4r2Ie_Q1p23mnPpWkffT-3" value="(712 m)" style="text;html=1;align=center;verticalAlign=middle;whiteSpace=wrap;rounded=0;" parent="1" vertex="1">
          <mxGeometry x="340" y="185" width="50" height="25" as="geometry" />
        </mxCell>
        <mxCell id="4r2Ie_Q1p23mnPpWkffT-4" style="edgeStyle=none;curved=1;rounded=0;orthogonalLoop=1;jettySize=auto;html=1;exitX=1;exitY=0.5;exitDx=0;exitDy=0;fontSize=12;startSize=8;endSize=8;" parent="1" source="4r2Ie_Q1p23mnPpWkffT-2" target="4r2Ie_Q1p23mnPpWkffT-2" edge="1">
          <mxGeometry relative="1" as="geometry" />
        </mxCell>
        <mxCell id="4r2Ie_Q1p23mnPpWkffT-7" value="(712 m)" style="text;html=1;align=center;verticalAlign=middle;whiteSpace=wrap;rounded=0;" parent="1" vertex="1">
          <mxGeometry x="480" y="75" width="50" height="25" as="geometry" />
        </mxCell>
        <mxCell id="4r2Ie_Q1p23mnPpWkffT-8" value="(100 m)" style="text;html=1;align=center;verticalAlign=middle;whiteSpace=wrap;rounded=0;" parent="1" vertex="1">
          <mxGeometry x="470" y="-25" width="70" height="25" as="geometry" />
        </mxCell>
        <mxCell id="YKznKMfLZ2UA2GJ3oMAX-13" style="edgeStyle=orthogonalEdgeStyle;rounded=0;orthogonalLoop=1;jettySize=auto;html=1;" parent="1" source="YKznKMfLZ2UA2GJ3oMAX-1" target="YKznKMfLZ2UA2GJ3oMAX-2" edge="1">
          <mxGeometry relative="1" as="geometry" />
        </mxCell>
        <mxCell id="YKznKMfLZ2UA2GJ3oMAX-1" value="Bobina" style="rounded=0;whiteSpace=wrap;html=1;" parent="1" vertex="1">
          <mxGeometry x="560" y="-60" width="200" height="60" as="geometry" />
        </mxCell>
        <mxCell id="YKznKMfLZ2UA2GJ3oMAX-2" value="Bobina de Cabo de Aço Entrançado" style="rounded=0;whiteSpace=wrap;html=1;" parent="1" vertex="1">
          <mxGeometry x="425" y="-200" width="190" height="60" as="geometry" />
        </mxCell>
        <mxCell id="YKznKMfLZ2UA2GJ3oMAX-3" style="edgeStyle=orthogonalEdgeStyle;rounded=0;orthogonalLoop=1;jettySize=auto;html=1;entryX=0.5;entryY=1;entryDx=0;entryDy=0;" parent="1" target="YKznKMfLZ2UA2GJ3oMAX-2" edge="1">
          <mxGeometry relative="1" as="geometry">
            <mxPoint x="379.76" y="-60" as="sourcePoint" />
            <mxPoint x="379.76" y="-110" as="targetPoint" />
            <Array as="points">
              <mxPoint x="380" y="-100" />
              <mxPoint x="520" y="-100" />
            </Array>
          </mxGeometry>
        </mxCell>
        <mxCell id="YKznKMfLZ2UA2GJ3oMAX-9" value="(1)" style="text;html=1;align=center;verticalAlign=middle;whiteSpace=wrap;rounded=0;" parent="1" vertex="1">
          <mxGeometry x="760" y="-25" width="20" height="25" as="geometry" />
        </mxCell>
        <mxCell id="YKznKMfLZ2UA2GJ3oMAX-14" value="(1x100 m)" style="text;html=1;align=center;verticalAlign=middle;whiteSpace=wrap;rounded=0;" parent="1" vertex="1">
          <mxGeometry x="615" y="-165" width="70" height="25" as="geometry" />
        </mxCell>
        <mxCell id="YKznKMfLZ2UA2GJ3oMAX-15" value="(~4,8 %)" style="text;html=1;align=center;verticalAlign=middle;whiteSpace=wrap;rounded=0;" parent="1" vertex="1">
          <mxGeometry x="335" y="300" width="60" height="20" as="geometry" />
        </mxCell>
      </root>
    </mxGraphModel>
  </diagram>
</mxfile>
